<svg width="112" height="35" viewBox="0 0 112 35" fill="none" xmlns="http://www.w3.org/2000/svg">
<path d="M44.9009 11.9164V17.9772C44.8972 18.0314 44.874 18.0824 44.8356 18.1208C44.7972 18.1592 44.7462 18.1824 44.6921 18.1861H42.6854C42.6312 18.1824 42.5802 18.1592 42.5418 18.1208C42.5034 18.0824 42.4802 18.0314 42.4766 17.9772L42.56 10.8297L42.4766 3.76607C42.4806 3.71215 42.504 3.66149 42.5423 3.62336C42.5807 3.58523 42.6315 3.56218 42.6854 3.55841H45.3401C45.4048 3.55722 45.4685 3.57427 45.5239 3.60759C45.5793 3.64091 45.6242 3.68917 45.6534 3.74682L52.4247 14.9468L52.4037 14.1529L52.3203 10.2866L52.2993 3.76607C52.3034 3.71215 52.3267 3.66149 52.3651 3.62336C52.4034 3.58523 52.4542 3.56218 52.5081 3.55841H54.5352C54.5895 3.56223 54.6405 3.58553 54.6788 3.62402C54.7172 3.66251 54.7404 3.71359 54.7441 3.76782L54.6396 10.8314L54.7236 17.979C54.7198 18.0332 54.6965 18.0842 54.658 18.1226C54.6195 18.161 54.5685 18.1842 54.5142 18.1878H51.7556C51.6911 18.1891 51.6274 18.1722 51.572 18.139C51.5166 18.1058 51.4717 18.0576 51.4424 18L44.7755 6.96332L44.8175 8.09207L44.9009 11.9164Z" fill="#3B6CB1"/>
<path d="M67.1134 18.186C67.0799 18.1861 67.0467 18.1796 67.0158 18.1668C66.9848 18.154 66.9567 18.1352 66.933 18.1115C66.9093 18.0878 66.8905 18.0597 66.8777 18.0287C66.865 17.9978 66.8584 17.9646 66.8585 17.9311L66.9168 15.834C65.9252 17.4773 64.3665 18.4695 62.2414 18.4695C58.3022 18.4695 56.2051 15.1539 56.2051 10.9311C56.2051 6.70836 58.4439 3.30811 62.298 3.30811C64.3665 3.30811 65.9252 4.18661 66.8888 5.80186L66.8305 3.84652C66.8303 3.813 66.8368 3.77979 66.8496 3.74879C66.8623 3.71779 66.8811 3.68963 66.9048 3.66592C66.9285 3.64222 66.9567 3.62345 66.9877 3.6107C67.0187 3.59794 67.0519 3.59145 67.0854 3.59161H69.1854C69.2189 3.59145 69.2521 3.59794 69.2831 3.6107C69.3141 3.62345 69.3423 3.64222 69.366 3.66592C69.3897 3.68963 69.4085 3.71779 69.4212 3.74879C69.434 3.77979 69.4405 3.813 69.4403 3.84652L69.3557 10.7614L69.4403 17.9311C69.4405 17.9646 69.434 17.9978 69.4212 18.0288C69.4085 18.0598 69.3897 18.088 69.366 18.1117C69.3423 18.1354 69.3141 18.1542 69.2831 18.1669C69.2521 18.1797 69.2189 18.1862 69.1854 18.186H67.1134ZM62.8912 16.5708C65.4136 16.5708 66.9437 14.7006 66.9746 11.0163C67.0026 7.50227 65.6708 5.40519 63.2902 5.20686H62.6952C60.0597 5.32002 58.8412 7.55886 58.8412 10.7328C58.8388 14.2188 60.1414 16.5708 62.8912 16.5708Z" fill="#3B6CB1"/>
<path d="M79.0716 17.9876C79.0389 18.0513 78.9905 18.1055 78.931 18.1452C78.8715 18.1849 78.8028 18.2088 78.7315 18.2146H76.124C76.0528 18.2086 75.9842 18.1847 75.9247 18.145C75.8652 18.1053 75.8168 18.0512 75.784 17.9876L70.5701 3.81789C70.5634 3.79158 70.5626 3.7641 70.5679 3.73747C70.5732 3.71084 70.5844 3.68574 70.6007 3.66402C70.617 3.6423 70.638 3.62451 70.6621 3.61197C70.6861 3.59943 70.7127 3.59245 70.7399 3.59155H73.0353C73.1103 3.59741 73.1821 3.62448 73.2424 3.66962C73.3026 3.71476 73.3487 3.77609 73.3754 3.84647L77.4844 16.0323L81.7071 3.84647C81.7338 3.77609 81.7799 3.71476 81.8401 3.66962C81.9004 3.62448 81.9722 3.59741 82.0472 3.59155H84.0305C84.1723 3.59155 84.2289 3.70472 84.2003 3.81789L79.0716 17.9876Z" fill="#3B6CB1"/>
<path d="M92.0891 17.9777C92.0856 18.0317 92.0625 18.0827 92.0242 18.121C91.9858 18.1593 91.9349 18.1824 91.8809 18.1859H89.6537C89.5997 18.1822 89.5489 18.1591 89.5108 18.1208C89.4726 18.0825 89.4496 18.0316 89.446 17.9777L89.5289 13.2118L84.7 3.80384C84.6861 3.78576 84.6778 3.764 84.6761 3.74124C84.6744 3.71849 84.6794 3.69574 84.6905 3.67581C84.7017 3.65589 84.7184 3.63965 84.7386 3.62913C84.7589 3.6186 84.7817 3.61424 84.8044 3.61659H87.2813C87.3426 3.61722 87.4025 3.63513 87.454 3.66825C87.5056 3.70137 87.5468 3.74836 87.5729 3.80384L90.8834 10.9427L94.213 3.80384C94.2393 3.74849 94.2805 3.70161 94.3321 3.66851C94.3836 3.63542 94.4434 3.61743 94.5047 3.61659H96.7523C96.775 3.61424 96.7979 3.6186 96.8181 3.62913C96.8383 3.63965 96.8551 3.65589 96.8662 3.67581C96.8773 3.69574 96.8823 3.71849 96.8806 3.74124C96.8789 3.764 96.8706 3.78576 96.8567 3.80384L92.0069 13.2323L92.0891 17.9777Z" fill="#3B6CB1"/>
<path d="M107.077 18.186C107.043 18.1861 107.01 18.1796 106.979 18.1668C106.948 18.154 106.92 18.1352 106.896 18.1115C106.873 18.0878 106.854 18.0597 106.841 18.0287C106.828 17.9978 106.822 17.9646 106.822 17.9311L106.88 15.834C105.889 17.4773 104.329 18.4695 102.204 18.4695C98.2651 18.4695 96.168 15.1539 96.168 10.9311C96.168 6.70836 98.408 3.30811 102.258 3.30811C104.326 3.30811 105.885 4.18661 106.849 5.80186L106.79 3.84652C106.79 3.813 106.797 3.77979 106.81 3.74879C106.822 3.71779 106.841 3.68963 106.865 3.66592C106.888 3.64222 106.917 3.62345 106.948 3.6107C106.979 3.59794 107.012 3.59145 107.045 3.59161H109.142C109.176 3.59145 109.209 3.59794 109.24 3.6107C109.271 3.62345 109.299 3.64222 109.323 3.66592C109.347 3.68963 109.366 3.71779 109.378 3.74879C109.391 3.77979 109.398 3.813 109.397 3.84652L109.316 10.7614L109.401 17.9311C109.402 17.9646 109.395 17.9978 109.382 18.0288C109.37 18.0598 109.351 18.088 109.327 18.1117C109.303 18.1354 109.275 18.1542 109.244 18.1669C109.213 18.1797 109.18 18.1862 109.147 18.186H107.077ZM102.855 16.5708C105.377 16.5708 106.907 14.7006 106.938 11.0163C106.966 7.50227 105.634 5.40519 103.254 5.20686H102.659C100.023 5.32002 98.8046 7.55886 98.8046 10.7328C98.8023 14.2188 100.106 16.5708 102.855 16.5708Z" fill="#3B6CB1"/>
<path d="M49.1136 30.1461H44.3408L43.4004 32.3552H41.5723L45.8679 22.8083H47.6138L51.9229 32.3552H50.0685L49.1136 30.1461ZM48.5274 28.7583L46.7254 24.5823L44.941 28.7583H48.5274Z" fill="#3B6CB1"/>
<path d="M52.5918 22.8083H56.765C59.8607 22.8083 61.9747 24.7176 61.9747 27.5812C61.9747 30.4448 59.8607 32.354 56.765 32.354H52.5918V22.8083ZM56.6833 30.8584C58.8107 30.8584 60.188 29.5628 60.188 27.5853C60.188 25.6078 58.8107 24.3122 56.6833 24.3122H54.3675V30.8584H56.6833Z" fill="#3B6CB1"/>
<path d="M71.2202 22.8083L67.0611 32.354H65.3157L61.1426 22.8083H63.0676L66.2444 30.1723L69.4475 22.8083H71.2202Z" fill="#3B6CB1"/>
<path d="M71.8887 22.8083H73.662V32.3552H71.8887V22.8083Z" fill="#3B6CB1"/>
<path d="M74.6152 31.3461L75.2289 29.9688C75.9925 30.5825 77.2064 31.0188 78.3789 31.0188C79.8652 31.0188 80.4929 30.4868 80.4929 29.7781C80.4929 27.7189 74.8194 29.0688 74.8194 25.5233C74.8194 23.9821 76.0444 22.6731 78.6653 22.6731C79.811 22.6731 81.0109 22.9729 81.8427 23.5183L81.2839 24.8956C80.4246 24.3916 79.4837 24.146 78.6519 24.146C77.179 24.146 76.5787 24.7188 76.5787 25.441C76.5787 27.4733 82.2371 26.1503 82.2371 29.6556C82.2371 31.1828 80.9963 32.4918 78.3777 32.4918C76.8926 32.4918 75.4062 32.028 74.6152 31.3461Z" fill="#3B6CB1"/>
<path d="M82.498 27.5824C82.498 24.7597 84.6803 22.6731 87.6395 22.6731C90.5988 22.6731 92.7805 24.7457 92.7805 27.5824C92.7805 30.4192 90.5988 32.4918 87.6395 32.4918C84.6803 32.4918 82.498 30.4052 82.498 27.5824ZM90.9943 27.5824C90.9943 25.6323 89.5622 24.2277 87.6395 24.2277C85.7169 24.2277 84.2848 25.6323 84.2848 27.5824C84.2848 29.5325 85.7163 30.9372 87.6395 30.9372C89.5628 30.9372 90.9943 29.5325 90.9943 27.5824Z" fill="#3B6CB1"/>
<path d="M99.818 32.3552L97.8679 29.5598C97.7456 29.571 97.6227 29.5755 97.4999 29.5733H95.345V32.3552H93.5723V22.8083H97.4999C100.008 22.8083 101.564 24.0917 101.564 26.2039C101.564 27.6494 100.827 28.7123 99.5316 29.2174L101.727 32.354L99.818 32.3552ZM97.4164 24.3093H95.3438V28.1167H97.4164C98.9716 28.1167 99.776 27.4073 99.776 26.2074C99.776 25.0075 98.9728 24.3093 97.4164 24.3093Z" fill="#3B6CB1"/>
<path d="M102.191 31.3461L102.805 29.9688C103.569 30.5825 104.782 31.0188 105.955 31.0188C107.441 31.0188 108.068 30.4868 108.068 29.7781C108.068 27.7189 102.396 29.0688 102.396 25.5233C102.396 23.9821 103.621 22.6731 106.241 22.6731C107.387 22.6731 108.587 22.9729 109.419 23.5183L108.859 24.8956C108 24.3916 107.059 24.146 106.227 24.146C104.755 24.146 104.155 24.7188 104.155 25.441C104.155 27.4733 109.813 26.1503 109.813 29.6556C109.813 31.1828 108.572 32.4918 105.954 32.4918C104.468 32.4918 102.982 32.028 102.191 31.3461Z" fill="#3B6CB1"/>
<path d="M34.0929 6.50604C32.3799 4.59231 29.812 3.62923 26.3894 3.61679C24.6542 3.61095 23.0877 3.89737 21.6901 4.47604C20.2924 5.0547 18.9128 6.0279 17.5513 7.39562L17.5636 3.82329L2.94175 3.77254L2.84375 32.2585H3.49942C3.71875 26.844 9.43017 26.6001 11.7682 26.0121C14.1476 25.4154 17.2188 24.7778 17.2369 19.375C17.2503 15.4841 15.9991 14.745 14.0111 14.738C12.0231 14.731 9.85775 15.8464 9.85542 16.4962C9.85542 16.712 9.94117 16.7558 10.0304 16.7564C10.1599 16.7564 10.3332 16.7138 10.5058 16.7144C12.6642 16.722 14.2602 18.5431 14.2532 20.618C14.2444 23.0815 12.2057 25.1494 9.82858 25.1412C7.49525 25.133 5.29608 23.3533 5.306 20.5002C5.3165 17.3018 8.56917 14.244 15.6147 14.2685C21.5798 14.2889 25.6783 16.6374 25.662 21.262L25.6241 32.3378L28.5635 32.3477H29.1235L36.6094 32.3734L36.6712 14.4388C36.6806 11.0652 35.8211 8.42093 34.0929 6.50604Z" fill="#3B6CB1"/>
<path d="M16.9187 23.6523C16.8323 23.6523 16.2245 24.4282 15.3145 25.1165C14.5346 25.7191 12.4999 26.4903 12.4824 32.2822V32.2921L16.9461 32.3078C16.995 31.9754 17.0211 31.64 17.0243 31.3039L17.0499 23.9125V23.8688C17.0482 23.7416 17.0482 23.6529 16.9187 23.6523Z" fill="#3B6CB1"/>
</svg>
